solid OpenSCAD_Model
  facet normal 0 0 -1
    outer loop
      vertex 0 0 0
      vertex 12 11 0
      vertex 12 0 0
    endloop
  endfacet
  facet normal -0 0 -1
    outer loop
      vertex 12 11 0
      vertex 0 0 0
      vertex 0 11 0
    endloop
  endfacet
  facet normal 0 1 -0
    outer loop
      vertex 12 11 0
      vertex 0 11 10
      vertex 12 11 10
    endloop
  endfacet
  facet normal 0 1 0
    outer loop
      vertex 0 11 10
      vertex 12 11 0
      vertex 0 11 0
    endloop
  endfacet
  facet normal 0 -0.672673 0.73994
    outer loop
      vertex 0 11 10
      vertex 12 0 0
      vertex 12 11 10
    endloop
  endfacet
  facet normal 0 -0.672673 0.73994
    outer loop
      vertex 12 0 0
      vertex 0 11 10
      vertex 0 0 0
    endloop
  endfacet
  facet normal -1 0 -0
    outer loop
      vertex 0 11 10
      vertex 0 11 0
      vertex 0 0 0
    endloop
  endfacet
  facet normal 1 0 0
    outer loop
      vertex 12 0 0
      vertex 12 11 0
      vertex 12 11 10
    endloop
  endfacet
endsolid OpenSCAD_Model
