solid OpenSCAD_Model
  facet normal 0 0 -1
    outer loop
      vertex 0 0 0
      vertex 12 12 0
      vertex 12 0 0
    endloop
  endfacet
  facet normal -0 0 -1
    outer loop
      vertex 12 12 0
      vertex 0 0 0
      vertex 0 12 0
    endloop
  endfacet
  facet normal 0 1 -0
    outer loop
      vertex 12 12 0
      vertex 0 12 8
      vertex 12 12 8
    endloop
  endfacet
  facet normal 0 1 0
    outer loop
      vertex 0 12 8
      vertex 12 12 0
      vertex 0 12 0
    endloop
  endfacet
  facet normal 0 -0.5547 0.83205
    outer loop
      vertex 0 12 8
      vertex 12 0 0
      vertex 12 12 8
    endloop
  endfacet
  facet normal 0 -0.5547 0.83205
    outer loop
      vertex 12 0 0
      vertex 0 12 8
      vertex 0 0 0
    endloop
  endfacet
  facet normal -1 0 -0
    outer loop
      vertex 0 12 8
      vertex 0 12 0
      vertex 0 0 0
    endloop
  endfacet
  facet normal 1 0 0
    outer loop
      vertex 12 0 0
      vertex 12 12 0
      vertex 12 12 8
    endloop
  endfacet
endsolid OpenSCAD_Model
